<svg xmlns="http://www.w3.org/2000/svg" width="267" height="52" fill="none" viewBox="0 0 267 52">
  <path fill="url(#a)" d="M18.445.013c.962.007 1.924.014 2.843.014h9.345c.918 0 1.88-.007 2.843-.014 2.592-.018 5.187-.036 6.944.077 6.395.41 10.805 4.284 11.372 10.868.134 2.366.131 5.216.127 8.577l-.001 1.777v9.345l.001 1.776c.004 3.361.007 6.212-.127 8.578-.567 6.584-4.977 10.459-11.372 10.868-1.757.113-4.352.095-6.944.077-.963-.007-1.925-.014-2.843-.014h-9.345c-.919 0-1.88.007-2.843.014-2.592.018-5.188.036-6.944-.077C5.106 51.47.696 47.595.129 41.011c-.135-2.366-.132-5.216-.128-8.577l.002-1.777v-9.345L0 19.536c-.004-3.361-.007-6.212.128-8.578C.696 4.374 5.106.499 11.5.09c1.757-.113 4.352-.095 6.944-.077Z"/>
  <path fill="url(#b)" d="M8.442 18.523a2.394 2.394 0 0 1 2.395-2.394h16.759a6.048 6.048 0 0 1 6.048 6.048V33.33a2.394 2.394 0 0 1-2.394 2.394H14.49a6.048 6.048 0 0 1-6.048-6.048V18.523Z"/>
  <path fill="url(#c)" d="M35.156 23.066c0-.815.35-1.59.963-2.129l4.801-4.224c1.018-.895 2.616-.172 2.616 1.183v16.108c0 1.343-1.572 2.07-2.595 1.2l-4.408-3.744a3.906 3.906 0 0 1-1.377-2.977v-5.417Z"/>
  <path fill="#fff" d="m73.8 46-8-13.9h-4.35V46h-5.7V11.25h12c2.667 0 4.917.467 6.75 1.4 1.867.933 3.25 2.183 4.15 3.75.933 1.567 1.4 3.317 1.4 5.25 0 2.267-.667 4.333-2 6.2-1.3 1.833-3.317 3.083-6.05 3.75L80.6 46h-6.8ZM61.45 27.55h6.3c2.133 0 3.733-.533 4.8-1.6 1.1-1.067 1.65-2.5 1.65-4.3 0-1.8-.533-3.2-1.6-4.2-1.067-1.033-2.683-1.55-4.85-1.55h-6.3v11.65Zm48.642 4a17.86 17.86 0 0 1-.2 2.8h-21.05c.166 2.2.983 3.967 2.45 5.3 1.466 1.333 3.266 2 5.4 2 3.067 0 5.233-1.283 6.5-3.85h6.15c-.834 2.533-2.35 4.617-4.55 6.25-2.167 1.6-4.867 2.4-8.1 2.4-2.633 0-5-.583-7.1-1.75-2.067-1.2-3.7-2.867-4.9-5-1.167-2.167-1.75-4.667-1.75-7.5s.567-5.317 1.7-7.45c1.166-2.167 2.783-3.833 4.85-5 2.1-1.167 4.5-1.75 7.2-1.75 2.6 0 4.916.567 6.95 1.7 2.033 1.133 3.616 2.733 4.75 4.8 1.133 2.033 1.7 4.383 1.7 7.05Zm-5.95-1.8c-.034-2.1-.784-3.783-2.25-5.05-1.467-1.267-3.283-1.9-5.45-1.9-1.967 0-3.65.633-5.05 1.9-1.4 1.233-2.233 2.917-2.5 5.05h15.25Zm7.159 2.35c0-2.767.567-5.217 1.7-7.35 1.167-2.133 2.734-3.783 4.7-4.95 2-1.2 4.2-1.8 6.6-1.8 2.167 0 4.05.433 5.65 1.3 1.634.833 2.934 1.883 3.9 3.15v-4h5.75V46h-5.75v-4.1c-.966 1.3-2.283 2.383-3.95 3.25-1.666.867-3.566 1.3-5.7 1.3-2.366 0-4.533-.6-6.5-1.8-1.966-1.233-3.533-2.933-4.7-5.1-1.133-2.2-1.7-4.683-1.7-7.45Zm22.55.1c0-1.9-.4-3.55-1.2-4.95-.766-1.4-1.783-2.467-3.05-3.2a8.045 8.045 0 0 0-4.1-1.1 8.048 8.048 0 0 0-4.1 1.1c-1.266.7-2.3 1.75-3.1 3.15-.766 1.367-1.15 3-1.15 4.9 0 1.9.384 3.567 1.15 5 .8 1.433 1.834 2.533 3.1 3.3 1.3.733 2.667 1.1 4.1 1.1a8.045 8.045 0 0 0 4.1-1.1c1.267-.733 2.284-1.8 3.05-3.2.8-1.433 1.2-3.1 1.2-5ZM150.288 9v37h-5.7V9h5.7Zm27.433 2.25v4.65h-9.25V46h-5.7V15.9h-9.3v-4.65h24.25Zm6.173 3.55c-1.033 0-1.9-.35-2.6-1.05-.7-.7-1.05-1.567-1.05-2.6 0-1.033.35-1.9 1.05-2.6.7-.7 1.567-1.05 2.6-1.05 1 0 1.85.35 2.55 1.05.7.7 1.05 1.567 1.05 2.6 0 1.033-.35 1.9-1.05 2.6-.7.7-1.55 1.05-2.55 1.05Zm2.8 3.65V46h-5.7V18.45h5.7Zm38.334-.45c2.166 0 4.1.45 5.8 1.35 1.733.9 3.083 2.233 4.05 4 1 1.767 1.5 3.9 1.5 6.4V46h-5.65V30.6c0-2.467-.617-4.35-1.85-5.65-1.234-1.333-2.917-2-5.05-2-2.134 0-3.834.667-5.1 2-1.234 1.3-1.85 3.183-1.85 5.65V46h-5.65V30.6c0-2.467-.617-4.35-1.85-5.65-1.234-1.333-2.917-2-5.05-2-2.134 0-3.834.667-5.1 2-1.234 1.3-1.85 3.183-1.85 5.65V46h-5.7V18.45h5.7v3.15c.933-1.133 2.116-2.017 3.55-2.65a11.256 11.256 0 0 1 4.6-.95c2.2 0 4.166.467 5.9 1.4 1.733.933 3.066 2.283 4 4.05.833-1.667 2.133-2.983 3.9-3.95 1.766-1 3.666-1.5 5.7-1.5Zm41.353 13.55a17.86 17.86 0 0 1-.2 2.8h-21.05c.167 2.2.983 3.967 2.45 5.3 1.467 1.333 3.267 2 5.4 2 3.067 0 5.233-1.283 6.5-3.85h6.15c-.833 2.533-2.35 4.617-4.55 6.25-2.167 1.6-4.867 2.4-8.1 2.4-2.633 0-5-.583-7.1-1.75-2.067-1.2-3.7-2.867-4.9-5-1.167-2.167-1.75-4.667-1.75-7.5s.567-5.317 1.7-7.45c1.167-2.167 2.783-3.833 4.85-5 2.1-1.167 4.5-1.75 7.2-1.75 2.6 0 4.917.567 6.95 1.7 2.033 1.133 3.617 2.733 4.75 4.8 1.133 2.033 1.7 4.383 1.7 7.05Zm-5.95-1.8c-.033-2.1-.783-3.783-2.25-5.05s-3.283-1.9-5.45-1.9c-1.967 0-3.65.633-5.05 1.9-1.4 1.233-2.233 2.917-2.5 5.05h15.25Z"/>
  <defs>
    <linearGradient id="a" x1="133.19" x2="133.19" y1="0" y2="51.969" gradientUnits="userSpaceOnUse">
      <stop stop-color="#A4C1FF"/>
      <stop offset="1" stop-color="#0E78F9"/>
    </linearGradient>
    <linearGradient id="b" x1="133.191" x2="133.191" y1="0" y2="51.969" gradientUnits="userSpaceOnUse">
      <stop stop-color="#fff"/>
      <stop offset="1" stop-color="#C5D4F7"/>
    </linearGradient>
    <linearGradient id="c" x1="133.192" x2="133.192" y1="0" y2="51.969" gradientUnits="userSpaceOnUse">
      <stop stop-color="#fff"/>
      <stop offset="1" stop-color="#C5D4F7"/>
    </linearGradient>
  </defs>
</svg>
